#!OML:ASF \\sashay\E\basketball\basketball\Project 1\Capture day 1\Session 1\Subject.ASF
:FULLY-SPECIFIED
:DEGREES
195
root -34.6228 15.547 0.188558 -179.937 68.6247 177.188
lowerback 10.6235 4.23198 -4.50334
upperback 8.64179 5.81032 2.10118
thorax 2.48475 2.89566 4.20874
lowerneck 10.628 -15.9405 -26.7928
upperneck -14.0246 -22.8395 33.9201
head 1.98436 -12.4184 14.384
rclavicle -6.40087e-014 1.11319e-014
rhumerus 60.9565 17.5336 -69.3015
rradius 90.8675
rwrist -1.39438
rhand -22.1603 25.3398
rfingers 7.12502
rthumb 4.25402 -4.59743
lclavicle -6.40087e-014 1.11319e-014
lhumerus 69.4461 -6.74751 65.9575
lradius 91.4096
lwrist 25.6183
lhand -25.7075 31.496
lfingers 7.12502
lthumb 0.828204 61.4741
rfemur -18.4894 -12.7793 10.9414
rtibia 52.1932
rfoot -11.9415 -24.0738
rtoes -20.7335
lfemur -20.633 6.61876 -20.5382
ltibia 44.9912
lfoot -15.3188 -8.39658
ltoes 13.2256
196
root -34.623 15.5626 0.159305 -180.103 68.3671 177.112
lowerback 10.927 4.33275 -4.52843
upperback 8.68559 5.94115 1.98059
thorax 2.3647 2.97081 4.06095
lowerneck 10.5033 -16.2721 -26.1769
upperneck -14.0786 -23.1569 33.9782
head 2.01673 -12.5907 14.2184
rclavicle 2.5842e-014 -3.81667e-014
rhumerus 60.4794 17.6425 -69.283
rradius 91.147
rwrist -1.14905
rhand -22.2772 25.4073
rfingers 7.12502
rthumb 4.14111 -4.53221
lclavicle 2.5842e-014 -3.81667e-014
lhumerus 69.0228 -7.1352 66.0375
lradius 91.9781
lwrist 25.5662
lhand -26.0129 31.803
lfingers 7.12502
lthumb 0.533283 61.7821
rfemur -18.3728 -12.5913 10.7404
rtibia 52.414
rfoot -12.9808 -23.5507
rtoes -15.71
lfemur -20.5928 6.73147 -20.7805
ltibia 45.0571
lfoot -15.81 -7.80246
ltoes 6.44418
197
root -34.6258 15.5714 0.130832 -179.775 68.0513 177.452
lowerback 11.155 4.29699 -4.52588
upperback 8.60621 5.87989 2.06374
thorax 2.1552 2.94476 4.12896
lowerneck 10.6578 -16.3846 -26.1659
upperneck -14.0897 -23.3467 34.0522
head 2.05588 -12.7039 14.2124
rclavicle 3.26007e-014 2.22639e-014
rhumerus 60.6353 18.1274 -68.7181
rradius 91.0676
rwrist -1.26622
rhand -22.1916 25.1189
rfingers 7.12502
rthumb 4.22379 -4.81895
lclavicle 3.26007e-014 2.22639e-014
lhumerus 68.1735 -7.30795 66.3597
lradius 92.5569
lwrist 25.5927
lhand -26.2712 32.0669
lfingers 7.12502
lthumb 0.283793 62.0465
rfemur -18.4198 -12.5744 10.7682
rtibia 52.6079
rfoot -12.0381 -23.6993
rtoes -17.3327
lfemur -20.7173 6.75448 -20.815
ltibia 45.1933
lfoot -16.138 -7.65879
ltoes 2.96461
198
root -34.6374 15.562 0.102339 -179.124 67.8829 177.894
lowerback 11.1477 4.2796 -4.34203
upperback 8.53592 5.86508 2.00655
thorax 2.10622 2.94617 3.9655
lowerneck 10.7404 -16.5529 -25.8709
upperneck -14.3331 -23.5008 34.2105
head 2.01269 -12.8094 14.2057
rclavicle -7.95139e-015 3.4191e-014
rhumerus 60.5587 18.533 -68.3516
rradius 91.309
rwrist -1.15737
rhand -22.1999 24.9596
rfingers 7.12502
rthumb 4.21577 -4.9784
lclavicle -7.95139e-015 3.4191e-014
lhumerus 67.4996 -7.38509 66.5274
lradius 93.2291
lwrist 25.7643
lhand -26.1008 32.2096
lfingers 7.12502
lthumb 0.448426 62.1889
rfemur -18.6085 -12.7657 10.9476
rtibia 52.8446
rfoot -11.2365 -23.7185
rtoes -18.4831
lfemur -21.129 6.81696 -20.8152
ltibia 45.3674
lfoot -16.2202 -7.74442
ltoes 2.85377
199
root -34.6491 15.5609 0.0718774 -178.502 67.9019 178.277
lowerback 11.1566 4.26432 -4.24113
upperback 8.38851 5.83549 1.98526
thorax 1.95732 2.93589 3.88092
lowerneck 10.8346 -16.6214 -25.825
upperneck -14.4425 -23.5889 34.3027
head 2.00443 -12.8694 14.2245
rclavicle 6.16232e-014 -3.4191e-014
rhumerus 59.8639 19.3566 -68.6115
rradius 91.5134
rwrist -0.526337
rhand -22.334 25.3407
rfingers 7.12502
rthumb 4.08628 -4.59982
lclavicle 6.16232e-014 -3.4191e-014
lhumerus 66.6235 -7.25241 66.7353
lradius 93.9232
lwrist 25.8765
lhand -26.1702 32.3509
lfingers 7.12502
lthumb 0.381406 62.3303
rfemur -19.1262 -12.7243 11.0864
rtibia 53.225
rfoot -11.1428 -23.4869
rtoes -17.0471
lfemur -21.4997 6.90525 -20.857
ltibia 45.4741
lfoot -16.2914 -7.67356
ltoes 2.75923
200
root -34.6481 15.5673 0.0538871 -177.935 67.8183 178.621
lowerback 11.1483 4.35157 -4.16919
upperback 8.28004 5.9455 1.83589
thorax 1.85694 2.997 3.66761
lowerneck 10.6533 -16.77 -25.4388
upperneck -14.1155 -23.7498 34.2526
head 2.10985 -12.9408 14.0747
rclavicle -9.14409e-014 3.49861e-014
rhumerus 59.1432 19.6379 -69.1407
rradius 91.3443
rwrist -0.18165
rhand -22.5445 25.9198
rfingers 7.12502
rthumb 3.883 -4.02455
lclavicle -9.14409e-014 3.49861e-014
lhumerus 66.0795 -7.45716 66.6699
lradius 94.5566
lwrist 25.9016
lhand -26.4345 32.5665
lfingers 7.12502
lthumb 0.126124 62.5462
rfemur -19.6187 -12.2557 11.1975
rtibia 53.5994
rfoot -12.6365 -22.8642
rtoes -9.89088
lfemur -21.7808 6.8633 -20.8176
ltibia 45.546
lfoot -16.356 -7.77886
ltoes 2.88891
201
root -34.657 15.5692 0.029314 -178.328 67.4709 178.313
lowerback 11.4681 4.20894 -4.31362
upperback 8.28691 5.73911 1.83038
thorax 1.70072 2.89542 3.74023
lowerneck 10.7245 -16.6005 -25.84
upperneck -13.923 -23.6358 34.346
head 2.18817 -12.8809 14.1964
rclavicle 1.25234e-013 1.43125e-014
rhumerus 58.7145 20.4596 -69.0351
rradius 91.5894
rwrist -0.192539
rhand -22.6737 26.2386
rfingers 7.12502
rthumb 3.75817 -3.70803
lclavicle 1.25234e-013 1.43125e-014
lhumerus 65.1942 -7.16869 66.8202
lradius 95.2237
lwrist 25.904
lhand -26.4871 32.9313
lfingers 7.12502
lthumb 0.0752445 62.9111
rfemur -19.5452 -12.5485 10.9825
rtibia 54.1792
rfoot -13.3583 -22.1255
rtoes -6.89768
lfemur -21.6464 6.46272 -21.0525
ltibia 45.4971
lfoot -16.3008 -7.78903
ltoes 3.60389
